<svg version="1.2" xmlns="http://www.w3.org/2000/svg" viewBox="0 0 500 491" width="500" height="491">
	<style>
		.s0 { fill: #000000 } 
	</style>
	<g id="layer2">
		<path id="circle10" class="s0" d="m110 439.64c-27.65 0-50-22.35-50-50 0-27.65 22.35-50 50-50 27.65 0 50 22.35 50 50 0 27.65-22.35 50-50 50z"/>
		<path id="circle12" class="s0" d="m250 295.64c-27.65 0-50-22.35-50-50 0-27.65 22.35-50 50-50 27.65 0 50 22.35 50 50 0 27.65-22.35 50-50 50z"/>
		<path id="circle14" class="s0" d="m390 151.64c-27.65 0-50-22.35-50-50 0-27.65 22.35-50 50-50 27.65 0 50 22.35 50 50 0 27.65-22.35 50-50 50z"/>
	</g>
	<g id="layer2">
	</g>
</svg>