<svg version="1.2" xmlns="http://www.w3.org/2000/svg" viewBox="0 0 500 491" width="500" height="491">
	<style>
		.s0 { fill: #000000 } 
	</style>
	<g id="layer2">
		<path id="circle44" class="s0" d="m110 438.64c-27.65 0-50-22.35-50-50 0-27.65 22.35-50 50-50 27.65 0 50 22.35 50 50 0 27.65-22.35 50-50 50z"/>
		<path id="circle46" class="s0" d="m110 294.64c-27.65 0-50-22.35-50-50 0-27.65 22.35-50 50-50 27.65 0 50 22.35 50 50 0 27.65-22.35 50-50 50z"/>
		<path id="circle48" class="s0" d="m110 150.64c-27.65 0-50-22.35-50-50 0-27.65 22.35-50 50-50 27.65 0 50 22.35 50 50 0 27.65-22.35 50-50 50z"/>
		<path id="circle50" class="s0" d="m390 438.64c-27.65 0-50-22.35-50-50 0-27.65 22.35-50 50-50 27.65 0 50 22.35 50 50 0 27.65-22.35 50-50 50z"/>
		<path id="circle52" class="s0" d="m390 294.64c-27.65 0-50-22.35-50-50 0-27.65 22.35-50 50-50 27.65 0 50 22.35 50 50 0 27.65-22.35 50-50 50z"/>
		<path id="circle54" class="s0" d="m390 150.64c-27.65 0-50-22.35-50-50 0-27.65 22.35-50 50-50 27.65 0 50 22.35 50 50 0 27.65-22.35 50-50 50z"/>
	</g>
	<g id="layer2">
	</g>
</svg>