<svg version="1.2" xmlns="http://www.w3.org/2000/svg" viewBox="0 0 500 1000" width="500" height="1000">
	<style>
		.s0 { fill: #ffffff;stroke: #000000;stroke-linejoin: round;stroke-width: 27.5 } 
		.s1 { fill: none;stroke: #000000;stroke-width: 10 } 
		.s2 { fill: #000000 } 
	</style>
	<g id="layer1">
		<path id="rect1872" fill-rule="evenodd" class="s0" d="m63.76 13.76h372.48c27.61 0 50 22.38 50 50v872.48c0 27.61-22.39 50-50 50h-372.48c-27.62 0-50-22.39-50-50v-872.48c0-27.62 22.38-50 50-50z"/>
		<path id="path15666" class="s1" d="m45 500h410"/>
	</g>
	<g id="layer2">
		<path id="circle26" class="s2" d="m110 933.64c-27.65 0-50-22.35-50-50 0-27.65 22.35-50 50-50 27.65 0 50 22.35 50 50 0 27.65-22.35 50-50 50z"/>
		<path id="circle28" class="s2" d="m110 645.64c-27.65 0-50-22.35-50-50 0-27.65 22.35-50 50-50 27.65 0 50 22.35 50 50 0 27.65-22.35 50-50 50z"/>
		<path id="circle30" class="s2" d="m390 933.64c-27.65 0-50-22.35-50-50 0-27.65 22.35-50 50-50 27.65 0 50 22.35 50 50 0 27.65-22.35 50-50 50z"/>
		<path id="circle32" class="s2" d="m390 645.64c-27.65 0-50-22.35-50-50 0-27.65 22.35-50 50-50 27.65 0 50 22.35 50 50 0 27.65-22.35 50-50 50z"/>
		<path id="circle34" class="s2" d="m250 789.64c-27.65 0-50-22.35-50-50 0-27.65 22.35-50 50-50 27.65 0 50 22.35 50 50 0 27.65-22.35 50-50 50z"/>
	</g>
	<g id="layer2 copy">
		<path id="circle26" class="s2" d="m110 457.64c-27.65 0-50-22.35-50-50 0-27.65 22.35-50 50-50 27.65 0 50 22.35 50 50 0 27.65-22.35 50-50 50z"/>
		<path id="circle28" class="s2" d="m110 169.64c-27.65 0-50-22.35-50-50 0-27.65 22.35-50 50-50 27.65 0 50 22.35 50 50 0 27.65-22.35 50-50 50z"/>
		<path id="circle30" class="s2" d="m390 457.64c-27.65 0-50-22.35-50-50 0-27.65 22.35-50 50-50 27.65 0 50 22.35 50 50 0 27.65-22.35 50-50 50z"/>
		<path id="circle32" class="s2" d="m390 169.64c-27.65 0-50-22.35-50-50 0-27.65 22.35-50 50-50 27.65 0 50 22.35 50 50 0 27.65-22.35 50-50 50z"/>
		<path id="circle34" class="s2" d="m250 313.64c-27.65 0-50-22.35-50-50 0-27.65 22.35-50 50-50 27.65 0 50 22.35 50 50 0 27.65-22.35 50-50 50z"/>
	</g>
</svg>